<svg width="250" height="63" viewBox="0 0 250 63" fill="none" xmlns="http://www.w3.org/2000/svg">
<g clip-path="url(#clip0_0_1)">
<mask id="mask0_0_1" style="mask-type:luminance" maskUnits="userSpaceOnUse" x="0" y="0" width="60" height="63">
<path d="M30 0C13.4312 0 0 14.1028 0 31.5C0 48.8972 13.4312 63 30 63C46.5687 63 60 48.8972 60 31.5C60 14.1028 46.5687 0 30 0Z" fill="white"/>
</mask>
<g mask="url(#mask0_0_1)">
<path d="M66 -6.2998H-6V69.3002H66V-6.2998Z" fill="#314148"/>
</g>
<mask id="mask1_0_1" style="mask-type:luminance" maskUnits="userSpaceOnUse" x="4" y="4" width="52" height="55">
<path d="M4.3042 4.51953H55.6954V58.4803H4.3042V4.51953Z" fill="white"/>
</mask>
<g mask="url(#mask1_0_1)">
<mask id="mask2_0_1" style="mask-type:luminance" maskUnits="userSpaceOnUse" x="4" y="4" width="52" height="55">
<path d="M29.9998 4.51953C15.8086 4.51953 4.3042 16.5991 4.3042 31.4999C4.3042 46.4007 15.8086 58.4803 29.9998 58.4803C44.1911 58.4803 55.6954 46.4007 55.6954 31.4999C55.6954 16.5991 44.1911 4.51953 29.9998 4.51953Z" fill="white"/>
</mask>
<g mask="url(#mask2_0_1)">
<path d="M4.3042 4.51953H55.6954V58.4803H4.3042V4.51953Z" fill="black"/>
</g>
</g>
<mask id="mask3_0_1" style="mask-type:luminance" maskUnits="userSpaceOnUse" x="10" y="31" width="40" height="22">
<path d="M10.3999 31.584H49.6493V52.5197H10.3999V31.584Z" fill="white"/>
</mask>
<g mask="url(#mask3_0_1)">
<mask id="mask4_0_1" style="mask-type:luminance" maskUnits="userSpaceOnUse" x="10" y="31" width="40" height="22">
<path d="M29.9967 52.5195L10.3442 31.4985H49.6492L29.9967 52.5195Z" fill="white"/>
</mask>
<g mask="url(#mask4_0_1)">
<path d="M49.6492 52.5196H10.4873V31.6699H49.6492V52.5196Z" fill="#314148"/>
</g>
</g>
<mask id="mask5_0_1" style="mask-type:luminance" maskUnits="userSpaceOnUse" x="10" y="10" width="40" height="22">
<path d="M10.3477 10.8794H49.6002V31.1503H10.3477V10.8794Z" fill="white"/>
</mask>
<g mask="url(#mask5_0_1)">
<mask id="mask6_0_1" style="mask-type:luminance" maskUnits="userSpaceOnUse" x="10" y="10" width="40" height="22">
<path d="M30.0002 10.8794L49.6527 31.0998H10.3477L30.0002 10.8794Z" fill="white"/>
</mask>
<g mask="url(#mask6_0_1)">
<path d="M10.3477 10.8794H49.5095V31.1503H10.3477V10.8794Z" fill="white"/>
</g>
</g>
</g>
<path d="M83.1006 18.2383H93.8672C94.5098 18.2383 94.9199 19.3662 95.0977 21.6221L100.43 48.5898C100.361 48.8633 100.156 49 99.8145 49H93.457C92.9102 49 92.5684 48.1797 92.4316 46.5391C91.9805 43.5859 91.6387 41.9795 91.4062 41.7197H88.2275H85.5615C85.3018 41.7197 84.8574 44.0098 84.2285 48.5898L83.8184 49H76.8457L76.5381 48.6924C78.5205 38.6709 79.9902 30.7412 80.9473 24.9033L82.2803 18.6484C82.5674 18.375 82.8408 18.2383 83.1006 18.2383ZM85.7666 35.9775L85.8691 36.0801H89.7656L89.9707 35.875L88.0225 25.0059L87.9199 24.9033H87.8174C87.5029 24.9033 87.1885 26.0996 86.874 28.4922C86.1357 32.6074 85.7666 35.1025 85.7666 35.9775ZM104.244 18.2383H123.624L123.932 18.5459L123.911 23.3652C123.843 23.9121 123.604 24.1855 123.193 24.1855H118.189C117.711 24.1855 117.472 24.4248 117.472 24.9033V48.1797C117.472 48.7266 117.267 49 116.856 49H110.704C110.226 49 109.986 48.6582 109.986 47.9746V29.415V24.5957L109.412 24.1855H104.552C103.868 24.1445 103.526 23.9873 103.526 23.7139V19.3047V18.9561C103.608 18.4775 103.848 18.2383 104.244 18.2383ZM127.438 18.2383H135.334L135.642 18.5459V29.7227L135.949 30.1328H142.922L143.229 29.8252V18.5459L143.537 18.2383H151.433L151.74 18.5459L151.781 48.0771C151.781 48.6924 151.508 49 150.961 49H144.152C143.605 49 143.332 48.6924 143.332 48.0771V36.6953C143.264 36.4219 143.059 36.2852 142.717 36.2852H135.949L135.642 36.5928L135.621 47.9746C135.621 48.6582 135.382 49 134.903 49H127.849C127.302 49 127.028 48.6924 127.028 48.0771V19.1611C127.028 18.6416 127.165 18.334 127.438 18.2383ZM155.288 18.2383H162.876C163.354 18.2383 163.594 18.6826 163.594 19.5713V33.9268V41.4121C163.662 42.3691 164.141 42.8477 165.029 42.8477H175.693C176.445 42.8477 176.821 43.1553 176.821 43.7705V48.6924L176.514 49H161.338C159.834 48.8223 158.193 47.9336 156.416 46.334C155.391 44.8164 154.878 43.415 154.878 42.1299V19.1611C154.878 18.6416 155.015 18.334 155.288 18.2383ZM186.46 18.2383H197.227C197.869 18.2383 198.279 19.3662 198.457 21.6221L203.789 48.5898C203.721 48.8633 203.516 49 203.174 49H196.816C196.27 49 195.928 48.1797 195.791 46.5391C195.34 43.5859 194.998 41.9795 194.766 41.7197H191.587H188.921C188.661 41.7197 188.217 44.0098 187.588 48.5898L187.178 49H180.205L179.897 48.6924C181.88 38.6709 183.35 30.7412 184.307 24.9033L185.64 18.6484C185.927 18.375 186.2 18.2383 186.46 18.2383ZM189.126 35.9775L189.229 36.0801H193.125L193.33 35.875L191.382 25.0059L191.279 24.9033H191.177C190.862 24.9033 190.548 26.0996 190.233 28.4922C189.495 32.6074 189.126 35.1025 189.126 35.9775ZM207.501 18.2383H220.626C221.979 18.457 223.312 19.1748 224.625 20.3916C225.637 21.6631 226.218 23.1328 226.368 24.8008V27.9795C226.368 29.0596 225.89 30.2559 224.933 31.5684C224.249 32.0879 223.907 32.5322 223.907 32.9014C225.89 34.2686 226.881 35.6357 226.881 37.0029C227.018 37.0029 227.086 37.3447 227.086 38.0283V42.0273C227.086 44.0645 226.129 45.9443 224.215 47.667C223.312 48.2412 222.253 48.6855 221.036 49H207.296C207.022 48.9043 206.886 48.5967 206.886 48.0771V19.0586C206.886 18.5117 207.091 18.2383 207.501 18.2383ZM214.063 24.2881V30.543L214.269 30.748H218.165C218.671 30.543 219.047 30.2012 219.293 29.7227V25.5186C219.184 24.5615 218.705 24.083 217.857 24.083H214.269L214.063 24.2881ZM214.063 36.0801V43.0527L214.781 43.1553H217.652C218.951 43.1553 219.601 42.6084 219.601 41.5146V38.0283C219.601 36.5928 219.054 35.875 217.96 35.875H214.269L214.063 36.0801ZM235.617 18.2383H248.742L249.05 18.5459V23.3652C249.05 23.7344 248.913 23.9736 248.64 24.083H239.309C238.215 24.3975 237.668 24.9785 237.668 25.8262V27.9795C237.668 29.1143 238.693 29.832 240.744 30.1328C241.264 30.1328 243.417 30.6455 247.204 31.6709C249.05 32.7783 249.973 34.624 249.973 37.208V41.5146C249.973 44.8916 248.503 47.2158 245.563 48.4873L243 49H231.413C231.044 49 230.736 48.7949 230.49 48.3848V43.2578L231.105 42.7451L231.823 42.8477H240.847C241.94 42.6289 242.487 42.082 242.487 41.207V38.6436C242.487 37.7139 242.043 37.0986 241.154 36.7979C235.002 35.499 231.926 34.5762 231.926 34.0293C230.764 33.0312 230.183 31.459 230.183 29.3125V24.9033C230.183 22.0869 231.584 20.002 234.387 18.6484L235.617 18.2383Z" fill="white"/>
<defs>
<clipPath id="clip0_0_1">
<rect width="60" height="63" fill="white"/>
</clipPath>
</defs>
</svg>
