<svg width="237" height="50" viewBox="0 0 237 50" fill="none" xmlns="http://www.w3.org/2000/svg">
<g clip-path="url(#clip0_0_1)">
<mask id="mask0_0_1" style="mask-type:luminance" maskUnits="userSpaceOnUse" x="0" y="0" width="50" height="50">
<path d="M25 0C11.1927 0 0 11.1927 0 25C0 38.8073 11.1927 50 25 50C38.8073 50 50 38.8073 50 25C50 11.1927 38.8073 0 25 0Z" fill="white"/>
</mask>
<g mask="url(#mask0_0_1)">
<path d="M55 -5H-5V55H55V-5Z" fill="white"/>
</g>
<mask id="mask1_0_1" style="mask-type:luminance" maskUnits="userSpaceOnUse" x="3" y="3" width="44" height="44">
<path d="M3.58691 3.58691H46.413V46.413H3.58691V3.58691Z" fill="white"/>
</mask>
<g mask="url(#mask1_0_1)">
<mask id="mask2_0_1" style="mask-type:luminance" maskUnits="userSpaceOnUse" x="3" y="3" width="44" height="44">
<path d="M24.9999 3.58691C13.1739 3.58691 3.58691 13.1739 3.58691 24.9999C3.58691 36.826 13.1739 46.413 24.9999 46.413C36.826 46.413 46.413 36.826 46.413 24.9999C46.413 13.1739 36.826 3.58691 24.9999 3.58691Z" fill="white"/>
</mask>
<g mask="url(#mask2_0_1)">
<path d="M3.58691 3.58691H46.413V46.413H3.58691V3.58691Z" fill="black"/>
</g>
</g>
<mask id="mask3_0_1" style="mask-type:luminance" maskUnits="userSpaceOnUse" x="8" y="25" width="34" height="17">
<path d="M8.6665 25.0669H41.3743V41.6825H8.6665V25.0669Z" fill="white"/>
</mask>
<g mask="url(#mask3_0_1)">
<mask id="mask4_0_1" style="mask-type:luminance" maskUnits="userSpaceOnUse" x="8" y="24" width="34" height="18">
<path d="M24.9972 41.6824L8.62012 24.999H41.3743L24.9972 41.6824Z" fill="white"/>
</mask>
<g mask="url(#mask4_0_1)">
<path d="M41.3741 41.6822H8.73926V25.1348H41.3741V41.6822Z" fill="#9AA2B1"/>
</g>
</g>
<mask id="mask5_0_1" style="mask-type:luminance" maskUnits="userSpaceOnUse" x="8" y="8" width="34" height="17">
<path d="M8.62305 8.63428H41.3335V24.7223H8.62305V8.63428Z" fill="white"/>
</mask>
<g mask="url(#mask5_0_1)">
<mask id="mask6_0_1" style="mask-type:luminance" maskUnits="userSpaceOnUse" x="8" y="8" width="34" height="17">
<path d="M25.0001 8.63428L41.3772 24.6822H8.62305L25.0001 8.63428Z" fill="white"/>
</mask>
<g mask="url(#mask6_0_1)">
<path d="M8.62305 8.63428H41.2579V24.7223H8.62305V8.63428Z" fill="white"/>
</g>
</g>
</g>
<path d="M70.1006 11.2383H80.8672C81.5098 11.2383 81.9199 12.3662 82.0977 14.6221L87.4297 41.5898C87.3613 41.8633 87.1562 42 86.8145 42H80.457C79.9102 42 79.5684 41.1797 79.4316 39.5391C78.9805 36.5859 78.6387 34.9795 78.4062 34.7197H75.2275H72.5615C72.3018 34.7197 71.8574 37.0098 71.2285 41.5898L70.8184 42H63.8457L63.5381 41.6924C65.5205 31.6709 66.9902 23.7412 67.9473 17.9033L69.2803 11.6484C69.5674 11.375 69.8408 11.2383 70.1006 11.2383ZM72.7666 28.9775L72.8691 29.0801H76.7656L76.9707 28.875L75.0225 18.0059L74.9199 17.9033H74.8174C74.5029 17.9033 74.1885 19.0996 73.874 21.4922C73.1357 25.6074 72.7666 28.1025 72.7666 28.9775ZM91.2441 11.2383H110.624L110.932 11.5459L110.911 16.3652C110.843 16.9121 110.604 17.1855 110.193 17.1855H105.189C104.711 17.1855 104.472 17.4248 104.472 17.9033V41.1797C104.472 41.7266 104.267 42 103.856 42H97.7041C97.2256 42 96.9863 41.6582 96.9863 40.9746V22.415V17.5957L96.4121 17.1855H91.5518C90.8682 17.1445 90.5264 16.9873 90.5264 16.7139V12.3047V11.9561C90.6084 11.4775 90.8477 11.2383 91.2441 11.2383ZM114.438 11.2383H122.334L122.642 11.5459V22.7227L122.949 23.1328H129.922L130.229 22.8252V11.5459L130.537 11.2383H138.433L138.74 11.5459L138.781 41.0771C138.781 41.6924 138.508 42 137.961 42H131.152C130.605 42 130.332 41.6924 130.332 41.0771V29.6953C130.264 29.4219 130.059 29.2852 129.717 29.2852H122.949L122.642 29.5928L122.621 40.9746C122.621 41.6582 122.382 42 121.903 42H114.849C114.302 42 114.028 41.6924 114.028 41.0771V12.1611C114.028 11.6416 114.165 11.334 114.438 11.2383ZM142.288 11.2383H149.876C150.354 11.2383 150.594 11.6826 150.594 12.5713V26.9268V34.4121C150.662 35.3691 151.141 35.8477 152.029 35.8477H162.693C163.445 35.8477 163.821 36.1553 163.821 36.7705V41.6924L163.514 42H148.338C146.834 41.8223 145.193 40.9336 143.416 39.334C142.391 37.8164 141.878 36.415 141.878 35.1299V12.1611C141.878 11.6416 142.015 11.334 142.288 11.2383ZM173.46 11.2383H184.227C184.869 11.2383 185.279 12.3662 185.457 14.6221L190.789 41.5898C190.721 41.8633 190.516 42 190.174 42H183.816C183.27 42 182.928 41.1797 182.791 39.5391C182.34 36.5859 181.998 34.9795 181.766 34.7197H178.587H175.921C175.661 34.7197 175.217 37.0098 174.588 41.5898L174.178 42H167.205L166.897 41.6924C168.88 31.6709 170.35 23.7412 171.307 17.9033L172.64 11.6484C172.927 11.375 173.2 11.2383 173.46 11.2383ZM176.126 28.9775L176.229 29.0801H180.125L180.33 28.875L178.382 18.0059L178.279 17.9033H178.177C177.862 17.9033 177.548 19.0996 177.233 21.4922C176.495 25.6074 176.126 28.1025 176.126 28.9775ZM194.501 11.2383H207.626C208.979 11.457 210.312 12.1748 211.625 13.3916C212.637 14.6631 213.218 16.1328 213.368 17.8008V20.9795C213.368 22.0596 212.89 23.2559 211.933 24.5684C211.249 25.0879 210.907 25.5322 210.907 25.9014C212.89 27.2686 213.881 28.6357 213.881 30.0029C214.018 30.0029 214.086 30.3447 214.086 31.0283V35.0273C214.086 37.0645 213.129 38.9443 211.215 40.667C210.312 41.2412 209.253 41.6855 208.036 42H194.296C194.022 41.9043 193.886 41.5967 193.886 41.0771V12.0586C193.886 11.5117 194.091 11.2383 194.501 11.2383ZM201.063 17.2881V23.543L201.269 23.748H205.165C205.671 23.543 206.047 23.2012 206.293 22.7227V18.5186C206.184 17.5615 205.705 17.083 204.857 17.083H201.269L201.063 17.2881ZM201.063 29.0801V36.0527L201.781 36.1553H204.652C205.951 36.1553 206.601 35.6084 206.601 34.5146V31.0283C206.601 29.5928 206.054 28.875 204.96 28.875H201.269L201.063 29.0801ZM222.617 11.2383H235.742L236.05 11.5459V16.3652C236.05 16.7344 235.913 16.9736 235.64 17.083H226.309C225.215 17.3975 224.668 17.9785 224.668 18.8262V20.9795C224.668 22.1143 225.693 22.832 227.744 23.1328C228.264 23.1328 230.417 23.6455 234.204 24.6709C236.05 25.7783 236.973 27.624 236.973 30.208V34.5146C236.973 37.8916 235.503 40.2158 232.563 41.4873L230 42H218.413C218.044 42 217.736 41.7949 217.49 41.3848V36.2578L218.105 35.7451L218.823 35.8477H227.847C228.94 35.6289 229.487 35.082 229.487 34.207V31.6436C229.487 30.7139 229.043 30.0986 228.154 29.7979C222.002 28.499 218.926 27.5762 218.926 27.0293C217.764 26.0312 217.183 24.459 217.183 22.3125V17.9033C217.183 15.0869 218.584 13.002 221.387 11.6484L222.617 11.2383Z" fill="white"/>
<defs>
<clipPath id="clip0_0_1">
<rect width="50" height="50" fill="white"/>
</clipPath>
</defs>
</svg>
